%TF.GenerationSoftware,KiCad,Pcbnew,(5.1.10)-1*%
%TF.CreationDate,2021-06-13T23:34:16+02:00*%
%TF.ProjectId,mailbox_notifier_wifi,6d61696c-626f-4785-9f6e-6f7469666965,rev?*%
%TF.SameCoordinates,Original*%
%TF.FileFunction,Legend,Top*%
%TF.FilePolarity,Positive*%
%FSLAX46Y46*%
G04 Gerber Fmt 4.6, Leading zero omitted, Abs format (unit mm)*
G04 Created by KiCad (PCBNEW (5.1.10)-1) date 2021-06-13 23:34:16*
%MOMM*%
%LPD*%
G01*
G04 APERTURE LIST*
%ADD10C,0.150000*%
%ADD11C,0.120000*%
G04 APERTURE END LIST*
D10*
X119826428Y-98468571D02*
X119826428Y-96968571D01*
X120326428Y-98040000D01*
X120826428Y-96968571D01*
X120826428Y-98468571D01*
X121540714Y-98468571D02*
X121540714Y-96968571D01*
X122040714Y-98040000D01*
X122540714Y-96968571D01*
X122540714Y-98468571D01*
X123469285Y-98468571D02*
X123326428Y-98397142D01*
X123255000Y-98325714D01*
X123183571Y-98182857D01*
X123183571Y-97754285D01*
X123255000Y-97611428D01*
X123326428Y-97540000D01*
X123469285Y-97468571D01*
X123683571Y-97468571D01*
X123826428Y-97540000D01*
X123897857Y-97611428D01*
X123969285Y-97754285D01*
X123969285Y-98182857D01*
X123897857Y-98325714D01*
X123826428Y-98397142D01*
X123683571Y-98468571D01*
X123469285Y-98468571D01*
X124612142Y-98468571D02*
X124612142Y-97468571D01*
X124612142Y-97754285D02*
X124683571Y-97611428D01*
X124755000Y-97540000D01*
X124897857Y-97468571D01*
X125040714Y-97468571D01*
X126183571Y-98468571D02*
X126183571Y-97682857D01*
X126112142Y-97540000D01*
X125969285Y-97468571D01*
X125683571Y-97468571D01*
X125540714Y-97540000D01*
X126183571Y-98397142D02*
X126040714Y-98468571D01*
X125683571Y-98468571D01*
X125540714Y-98397142D01*
X125469285Y-98254285D01*
X125469285Y-98111428D01*
X125540714Y-97968571D01*
X125683571Y-97897142D01*
X126040714Y-97897142D01*
X126183571Y-97825714D01*
X126755000Y-97468571D02*
X127040714Y-98468571D01*
X127326428Y-97754285D01*
X127612142Y-98468571D01*
X127897857Y-97468571D01*
X128469285Y-98468571D02*
X128469285Y-97468571D01*
X128469285Y-96968571D02*
X128397857Y-97040000D01*
X128469285Y-97111428D01*
X128540714Y-97040000D01*
X128469285Y-96968571D01*
X128469285Y-97111428D01*
X129755000Y-98397142D02*
X129612142Y-98468571D01*
X129326428Y-98468571D01*
X129183571Y-98397142D01*
X129112142Y-98254285D01*
X129112142Y-97682857D01*
X129183571Y-97540000D01*
X129326428Y-97468571D01*
X129612142Y-97468571D01*
X129755000Y-97540000D01*
X129826428Y-97682857D01*
X129826428Y-97825714D01*
X129112142Y-97968571D01*
X131112142Y-98397142D02*
X130969285Y-98468571D01*
X130683571Y-98468571D01*
X130540714Y-98397142D01*
X130469285Y-98325714D01*
X130397857Y-98182857D01*
X130397857Y-97754285D01*
X130469285Y-97611428D01*
X130540714Y-97540000D01*
X130683571Y-97468571D01*
X130969285Y-97468571D01*
X131112142Y-97540000D01*
X133326428Y-96968571D02*
X133326428Y-98040000D01*
X133255000Y-98254285D01*
X133112142Y-98397142D01*
X132897857Y-98468571D01*
X132755000Y-98468571D01*
X134683571Y-97468571D02*
X134683571Y-98468571D01*
X134040714Y-97468571D02*
X134040714Y-98254285D01*
X134112142Y-98397142D01*
X134255000Y-98468571D01*
X134469285Y-98468571D01*
X134612142Y-98397142D01*
X134683571Y-98325714D01*
X135397857Y-97468571D02*
X135397857Y-98468571D01*
X135397857Y-97611428D02*
X135469285Y-97540000D01*
X135612142Y-97468571D01*
X135826428Y-97468571D01*
X135969285Y-97540000D01*
X136040714Y-97682857D01*
X136040714Y-98468571D01*
X137326428Y-98397142D02*
X137183571Y-98468571D01*
X136897857Y-98468571D01*
X136755000Y-98397142D01*
X136683571Y-98254285D01*
X136683571Y-97682857D01*
X136755000Y-97540000D01*
X136897857Y-97468571D01*
X137183571Y-97468571D01*
X137326428Y-97540000D01*
X137397857Y-97682857D01*
X137397857Y-97825714D01*
X136683571Y-97968571D01*
X139112142Y-97111428D02*
X139183571Y-97040000D01*
X139326428Y-96968571D01*
X139683571Y-96968571D01*
X139826428Y-97040000D01*
X139897857Y-97111428D01*
X139969285Y-97254285D01*
X139969285Y-97397142D01*
X139897857Y-97611428D01*
X139040714Y-98468571D01*
X139969285Y-98468571D01*
X140897857Y-96968571D02*
X141040714Y-96968571D01*
X141183571Y-97040000D01*
X141255000Y-97111428D01*
X141326428Y-97254285D01*
X141397857Y-97540000D01*
X141397857Y-97897142D01*
X141326428Y-98182857D01*
X141255000Y-98325714D01*
X141183571Y-98397142D01*
X141040714Y-98468571D01*
X140897857Y-98468571D01*
X140755000Y-98397142D01*
X140683571Y-98325714D01*
X140612142Y-98182857D01*
X140540714Y-97897142D01*
X140540714Y-97540000D01*
X140612142Y-97254285D01*
X140683571Y-97111428D01*
X140755000Y-97040000D01*
X140897857Y-96968571D01*
X141969285Y-97111428D02*
X142040714Y-97040000D01*
X142183571Y-96968571D01*
X142540714Y-96968571D01*
X142683571Y-97040000D01*
X142755000Y-97111428D01*
X142826428Y-97254285D01*
X142826428Y-97397142D01*
X142755000Y-97611428D01*
X141897857Y-98468571D01*
X142826428Y-98468571D01*
X144255000Y-98468571D02*
X143397857Y-98468571D01*
X143826428Y-98468571D02*
X143826428Y-96968571D01*
X143683571Y-97182857D01*
X143540714Y-97325714D01*
X143397857Y-97397142D01*
X146040714Y-98468571D02*
X146040714Y-97468571D01*
X146040714Y-97754285D02*
X146112142Y-97611428D01*
X146183571Y-97540000D01*
X146326428Y-97468571D01*
X146469285Y-97468571D01*
X147540714Y-98397142D02*
X147397857Y-98468571D01*
X147112142Y-98468571D01*
X146969285Y-98397142D01*
X146897857Y-98254285D01*
X146897857Y-97682857D01*
X146969285Y-97540000D01*
X147112142Y-97468571D01*
X147397857Y-97468571D01*
X147540714Y-97540000D01*
X147612142Y-97682857D01*
X147612142Y-97825714D01*
X146897857Y-97968571D01*
X148112142Y-97468571D02*
X148469285Y-98468571D01*
X148826428Y-97468571D01*
X149397857Y-98325714D02*
X149469285Y-98397142D01*
X149397857Y-98468571D01*
X149326428Y-98397142D01*
X149397857Y-98325714D01*
X149397857Y-98468571D01*
X150040714Y-98040000D02*
X150755000Y-98040000D01*
X149897857Y-98468571D02*
X150397857Y-96968571D01*
X150897857Y-98468571D01*
X166830952Y-90892380D02*
X166830952Y-91606666D01*
X166783333Y-91749523D01*
X166688095Y-91844761D01*
X166545238Y-91892380D01*
X166450000Y-91892380D01*
X167783333Y-91892380D02*
X167307142Y-91892380D01*
X167307142Y-90892380D01*
X168688095Y-91797142D02*
X168640476Y-91844761D01*
X168497619Y-91892380D01*
X168402380Y-91892380D01*
X168259523Y-91844761D01*
X168164285Y-91749523D01*
X168116666Y-91654285D01*
X168069047Y-91463809D01*
X168069047Y-91320952D01*
X168116666Y-91130476D01*
X168164285Y-91035238D01*
X168259523Y-90940000D01*
X168402380Y-90892380D01*
X168497619Y-90892380D01*
X168640476Y-90940000D01*
X168688095Y-90987619D01*
X169402380Y-90892380D02*
X169402380Y-91606666D01*
X169354761Y-91749523D01*
X169259523Y-91844761D01*
X169116666Y-91892380D01*
X169021428Y-91892380D01*
X170354761Y-91892380D02*
X169878571Y-91892380D01*
X169878571Y-90892380D01*
X171259523Y-91797142D02*
X171211904Y-91844761D01*
X171069047Y-91892380D01*
X170973809Y-91892380D01*
X170830952Y-91844761D01*
X170735714Y-91749523D01*
X170688095Y-91654285D01*
X170640476Y-91463809D01*
X170640476Y-91320952D01*
X170688095Y-91130476D01*
X170735714Y-91035238D01*
X170830952Y-90940000D01*
X170973809Y-90892380D01*
X171069047Y-90892380D01*
X171211904Y-90940000D01*
X171259523Y-90987619D01*
X171973809Y-90892380D02*
X171973809Y-91606666D01*
X171926190Y-91749523D01*
X171830952Y-91844761D01*
X171688095Y-91892380D01*
X171592857Y-91892380D01*
X172926190Y-91892380D02*
X172450000Y-91892380D01*
X172450000Y-90892380D01*
X173830952Y-91797142D02*
X173783333Y-91844761D01*
X173640476Y-91892380D01*
X173545238Y-91892380D01*
X173402380Y-91844761D01*
X173307142Y-91749523D01*
X173259523Y-91654285D01*
X173211904Y-91463809D01*
X173211904Y-91320952D01*
X173259523Y-91130476D01*
X173307142Y-91035238D01*
X173402380Y-90940000D01*
X173545238Y-90892380D01*
X173640476Y-90892380D01*
X173783333Y-90940000D01*
X173830952Y-90987619D01*
X174545238Y-90892380D02*
X174545238Y-91606666D01*
X174497619Y-91749523D01*
X174402380Y-91844761D01*
X174259523Y-91892380D01*
X174164285Y-91892380D01*
X175497619Y-91892380D02*
X175021428Y-91892380D01*
X175021428Y-90892380D01*
X176402380Y-91797142D02*
X176354761Y-91844761D01*
X176211904Y-91892380D01*
X176116666Y-91892380D01*
X175973809Y-91844761D01*
X175878571Y-91749523D01*
X175830952Y-91654285D01*
X175783333Y-91463809D01*
X175783333Y-91320952D01*
X175830952Y-91130476D01*
X175878571Y-91035238D01*
X175973809Y-90940000D01*
X176116666Y-90892380D01*
X176211904Y-90892380D01*
X176354761Y-90940000D01*
X176402380Y-90987619D01*
X123325000Y-83028214D02*
X123277380Y-83123452D01*
X123277380Y-83266309D01*
X123325000Y-83409166D01*
X123420238Y-83504404D01*
X123515476Y-83552023D01*
X123705952Y-83599642D01*
X123848809Y-83599642D01*
X124039285Y-83552023D01*
X124134523Y-83504404D01*
X124229761Y-83409166D01*
X124277380Y-83266309D01*
X124277380Y-83171071D01*
X124229761Y-83028214D01*
X124182142Y-82980595D01*
X123848809Y-82980595D01*
X123848809Y-83171071D01*
X124277380Y-82552023D02*
X123277380Y-82552023D01*
X124277380Y-81980595D01*
X123277380Y-81980595D01*
X124277380Y-81504404D02*
X123277380Y-81504404D01*
X123277380Y-81266309D01*
X123325000Y-81123452D01*
X123420238Y-81028214D01*
X123515476Y-80980595D01*
X123705952Y-80932976D01*
X123848809Y-80932976D01*
X124039285Y-80980595D01*
X124134523Y-81028214D01*
X124229761Y-81123452D01*
X124277380Y-81266309D01*
X124277380Y-81504404D01*
X121737380Y-82980595D02*
X120737380Y-82980595D01*
X120737380Y-82313928D02*
X120737380Y-82123452D01*
X120785000Y-82028214D01*
X120880238Y-81932976D01*
X121070714Y-81885357D01*
X121404047Y-81885357D01*
X121594523Y-81932976D01*
X121689761Y-82028214D01*
X121737380Y-82123452D01*
X121737380Y-82313928D01*
X121689761Y-82409166D01*
X121594523Y-82504404D01*
X121404047Y-82552023D01*
X121070714Y-82552023D01*
X120880238Y-82504404D01*
X120785000Y-82409166D01*
X120737380Y-82313928D01*
X120737380Y-81266309D02*
X120737380Y-81171071D01*
X120785000Y-81075833D01*
X120832619Y-81028214D01*
X120927857Y-80980595D01*
X121118333Y-80932976D01*
X121356428Y-80932976D01*
X121546904Y-80980595D01*
X121642142Y-81028214D01*
X121689761Y-81075833D01*
X121737380Y-81171071D01*
X121737380Y-81266309D01*
X121689761Y-81361547D01*
X121642142Y-81409166D01*
X121546904Y-81456785D01*
X121356428Y-81504404D01*
X121118333Y-81504404D01*
X120927857Y-81456785D01*
X120832619Y-81409166D01*
X120785000Y-81361547D01*
X120737380Y-81266309D01*
X119197380Y-82647261D02*
X118721190Y-82980595D01*
X119197380Y-83218690D02*
X118197380Y-83218690D01*
X118197380Y-82837738D01*
X118245000Y-82742500D01*
X118292619Y-82694880D01*
X118387857Y-82647261D01*
X118530714Y-82647261D01*
X118625952Y-82694880D01*
X118673571Y-82742500D01*
X118721190Y-82837738D01*
X118721190Y-83218690D01*
X119149761Y-82266309D02*
X119197380Y-82123452D01*
X119197380Y-81885357D01*
X119149761Y-81790119D01*
X119102142Y-81742500D01*
X119006904Y-81694880D01*
X118911666Y-81694880D01*
X118816428Y-81742500D01*
X118768809Y-81790119D01*
X118721190Y-81885357D01*
X118673571Y-82075833D01*
X118625952Y-82171071D01*
X118578333Y-82218690D01*
X118483095Y-82266309D01*
X118387857Y-82266309D01*
X118292619Y-82218690D01*
X118245000Y-82171071D01*
X118197380Y-82075833D01*
X118197380Y-81837738D01*
X118245000Y-81694880D01*
X118197380Y-81409166D02*
X118197380Y-80837738D01*
X119197380Y-81123452D02*
X118197380Y-81123452D01*
X114117380Y-82885357D02*
X113641190Y-83218690D01*
X114117380Y-83456785D02*
X113117380Y-83456785D01*
X113117380Y-83075833D01*
X113165000Y-82980595D01*
X113212619Y-82932976D01*
X113307857Y-82885357D01*
X113450714Y-82885357D01*
X113545952Y-82932976D01*
X113593571Y-82980595D01*
X113641190Y-83075833D01*
X113641190Y-83456785D01*
X113117380Y-82552023D02*
X114117380Y-81885357D01*
X113117380Y-81885357D02*
X114117380Y-82552023D01*
X114117380Y-81504404D02*
X113117380Y-81504404D01*
X113117380Y-81266309D01*
X113165000Y-81123452D01*
X113260238Y-81028214D01*
X113355476Y-80980595D01*
X113545952Y-80932976D01*
X113688809Y-80932976D01*
X113879285Y-80980595D01*
X113974523Y-81028214D01*
X114069761Y-81123452D01*
X114117380Y-81266309D01*
X114117380Y-81504404D01*
X115657380Y-83361547D02*
X115657380Y-82790119D01*
X116657380Y-83075833D02*
X115657380Y-83075833D01*
X115657380Y-82552023D02*
X116657380Y-81885357D01*
X115657380Y-81885357D02*
X116657380Y-82552023D01*
X116657380Y-81504404D02*
X115657380Y-81504404D01*
X115657380Y-81266309D01*
X115705000Y-81123452D01*
X115800238Y-81028214D01*
X115895476Y-80980595D01*
X116085952Y-80932976D01*
X116228809Y-80932976D01*
X116419285Y-80980595D01*
X116514523Y-81028214D01*
X116609761Y-81123452D01*
X116657380Y-81266309D01*
X116657380Y-81504404D01*
X110577380Y-83837738D02*
X110577380Y-83218690D01*
X110958333Y-83552023D01*
X110958333Y-83409166D01*
X111005952Y-83313928D01*
X111053571Y-83266309D01*
X111148809Y-83218690D01*
X111386904Y-83218690D01*
X111482142Y-83266309D01*
X111529761Y-83313928D01*
X111577380Y-83409166D01*
X111577380Y-83694880D01*
X111529761Y-83790119D01*
X111482142Y-83837738D01*
X111482142Y-82790119D02*
X111529761Y-82742500D01*
X111577380Y-82790119D01*
X111529761Y-82837738D01*
X111482142Y-82790119D01*
X111577380Y-82790119D01*
X110577380Y-82409166D02*
X110577380Y-81790119D01*
X110958333Y-82123452D01*
X110958333Y-81980595D01*
X111005952Y-81885357D01*
X111053571Y-81837738D01*
X111148809Y-81790119D01*
X111386904Y-81790119D01*
X111482142Y-81837738D01*
X111529761Y-81885357D01*
X111577380Y-81980595D01*
X111577380Y-82266309D01*
X111529761Y-82361547D01*
X111482142Y-82409166D01*
X110577380Y-81504404D02*
X111577380Y-81171071D01*
X110577380Y-80837738D01*
X109037380Y-83647261D02*
X108037380Y-83647261D01*
X108037380Y-83266309D01*
X108085000Y-83171071D01*
X108132619Y-83123452D01*
X108227857Y-83075833D01*
X108370714Y-83075833D01*
X108465952Y-83123452D01*
X108513571Y-83171071D01*
X108561190Y-83266309D01*
X108561190Y-83647261D01*
X108037380Y-82742500D02*
X109037380Y-82504404D01*
X108323095Y-82313928D01*
X109037380Y-82123452D01*
X108037380Y-81885357D01*
X109037380Y-80932976D02*
X108561190Y-81266309D01*
X109037380Y-81504404D02*
X108037380Y-81504404D01*
X108037380Y-81123452D01*
X108085000Y-81028214D01*
X108132619Y-80980595D01*
X108227857Y-80932976D01*
X108370714Y-80932976D01*
X108465952Y-80980595D01*
X108513571Y-81028214D01*
X108561190Y-81123452D01*
X108561190Y-81504404D01*
D11*
%TO.C,C1*%
X129820000Y-87985000D02*
X131020000Y-87985000D01*
X134340000Y-87985000D02*
X133140000Y-87985000D01*
X134340000Y-84529437D02*
X134340000Y-87985000D01*
X129820000Y-84529437D02*
X129820000Y-87985000D01*
X130884437Y-83465000D02*
X131020000Y-83465000D01*
X133275563Y-83465000D02*
X133140000Y-83465000D01*
X133275563Y-83465000D02*
X134340000Y-84529437D01*
X130884437Y-83465000D02*
X129820000Y-84529437D01*
X133640000Y-82725000D02*
X133640000Y-83225000D01*
X133890000Y-82975000D02*
X133390000Y-82975000D01*
%TO.C,J1*%
X108525000Y-88730000D02*
X126425000Y-88730000D01*
X126425000Y-88730000D02*
X126425000Y-86070000D01*
X126425000Y-86070000D02*
X108525000Y-86070000D01*
X108525000Y-86070000D02*
X108525000Y-88730000D01*
X109475000Y-86070000D02*
X109475000Y-80070000D01*
X109475000Y-80070000D02*
X110235000Y-80070000D01*
X110235000Y-80070000D02*
X110235000Y-86070000D01*
X109535000Y-86070000D02*
X109535000Y-80070000D01*
X109655000Y-86070000D02*
X109655000Y-80070000D01*
X109775000Y-86070000D02*
X109775000Y-80070000D01*
X109895000Y-86070000D02*
X109895000Y-80070000D01*
X110015000Y-86070000D02*
X110015000Y-80070000D01*
X110135000Y-86070000D02*
X110135000Y-80070000D01*
X109475000Y-89060000D02*
X109475000Y-88730000D01*
X110235000Y-89060000D02*
X110235000Y-88730000D01*
X111125000Y-88730000D02*
X111125000Y-86070000D01*
X112015000Y-86070000D02*
X112015000Y-80070000D01*
X112015000Y-80070000D02*
X112775000Y-80070000D01*
X112775000Y-80070000D02*
X112775000Y-86070000D01*
X112015000Y-89127071D02*
X112015000Y-88730000D01*
X112775000Y-89127071D02*
X112775000Y-88730000D01*
X113665000Y-88730000D02*
X113665000Y-86070000D01*
X114555000Y-86070000D02*
X114555000Y-80070000D01*
X114555000Y-80070000D02*
X115315000Y-80070000D01*
X115315000Y-80070000D02*
X115315000Y-86070000D01*
X114555000Y-89127071D02*
X114555000Y-88730000D01*
X115315000Y-89127071D02*
X115315000Y-88730000D01*
X116205000Y-88730000D02*
X116205000Y-86070000D01*
X117095000Y-86070000D02*
X117095000Y-80070000D01*
X117095000Y-80070000D02*
X117855000Y-80070000D01*
X117855000Y-80070000D02*
X117855000Y-86070000D01*
X117095000Y-89127071D02*
X117095000Y-88730000D01*
X117855000Y-89127071D02*
X117855000Y-88730000D01*
X118745000Y-88730000D02*
X118745000Y-86070000D01*
X119635000Y-86070000D02*
X119635000Y-80070000D01*
X119635000Y-80070000D02*
X120395000Y-80070000D01*
X120395000Y-80070000D02*
X120395000Y-86070000D01*
X119635000Y-89127071D02*
X119635000Y-88730000D01*
X120395000Y-89127071D02*
X120395000Y-88730000D01*
X121285000Y-88730000D02*
X121285000Y-86070000D01*
X122175000Y-86070000D02*
X122175000Y-80070000D01*
X122175000Y-80070000D02*
X122935000Y-80070000D01*
X122935000Y-80070000D02*
X122935000Y-86070000D01*
X122175000Y-89127071D02*
X122175000Y-88730000D01*
X122935000Y-89127071D02*
X122935000Y-88730000D01*
X123825000Y-88730000D02*
X123825000Y-86070000D01*
X124715000Y-86070000D02*
X124715000Y-80070000D01*
X124715000Y-80070000D02*
X125475000Y-80070000D01*
X125475000Y-80070000D02*
X125475000Y-86070000D01*
X124715000Y-89127071D02*
X124715000Y-88730000D01*
X125475000Y-89127071D02*
X125475000Y-88730000D01*
X109855000Y-91440000D02*
X108585000Y-91440000D01*
X108585000Y-91440000D02*
X108585000Y-90170000D01*
%TO.C,BT1*%
X129480000Y-90110000D02*
X129480000Y-92770000D01*
X132080000Y-90110000D02*
X129480000Y-90110000D01*
X132080000Y-92770000D02*
X129480000Y-92770000D01*
X132080000Y-90110000D02*
X132080000Y-92770000D01*
X133350000Y-90110000D02*
X134680000Y-90110000D01*
X134680000Y-90110000D02*
X134680000Y-91440000D01*
%TO.C,SW1*%
X112141000Y-97790000D02*
X110871000Y-97790000D01*
X112141000Y-96520000D02*
X112141000Y-97790000D01*
X109828071Y-93600000D02*
X109431000Y-93600000D01*
X109828071Y-94360000D02*
X109431000Y-94360000D01*
X100771000Y-93600000D02*
X106771000Y-93600000D01*
X100771000Y-94360000D02*
X100771000Y-93600000D01*
X106771000Y-94360000D02*
X100771000Y-94360000D01*
X109431000Y-95250000D02*
X106771000Y-95250000D01*
X109761000Y-96140000D02*
X109431000Y-96140000D01*
X109761000Y-96900000D02*
X109431000Y-96900000D01*
X106771000Y-96240000D02*
X100771000Y-96240000D01*
X106771000Y-96360000D02*
X100771000Y-96360000D01*
X106771000Y-96480000D02*
X100771000Y-96480000D01*
X106771000Y-96600000D02*
X100771000Y-96600000D01*
X106771000Y-96720000D02*
X100771000Y-96720000D01*
X106771000Y-96840000D02*
X100771000Y-96840000D01*
X100771000Y-96140000D02*
X106771000Y-96140000D01*
X100771000Y-96900000D02*
X100771000Y-96140000D01*
X106771000Y-96900000D02*
X100771000Y-96900000D01*
X106771000Y-97850000D02*
X109431000Y-97850000D01*
X106771000Y-92650000D02*
X106771000Y-97850000D01*
X109431000Y-92650000D02*
X106771000Y-92650000D01*
X109431000Y-97850000D02*
X109431000Y-92650000D01*
%TO.C,U2*%
X182000000Y-81880000D02*
X182000000Y-81270000D01*
X182000000Y-81880000D02*
X189620000Y-81880000D01*
X165380000Y-81880000D02*
X166000000Y-81880000D01*
X165380000Y-84000000D02*
X165380000Y-81880000D01*
X165380000Y-98120000D02*
X165380000Y-96000000D01*
X166000000Y-98120000D02*
X165380000Y-98120000D01*
X189620000Y-98120000D02*
X182000000Y-98120000D01*
X189620000Y-81880000D02*
X189620000Y-98120000D01*
%TO.C,U1*%
X148865000Y-88245000D02*
X146415000Y-88245000D01*
X147065000Y-91465000D02*
X148865000Y-91465000D01*
%TO.C,R7*%
X155070436Y-83285000D02*
X155524564Y-83285000D01*
X155070436Y-81815000D02*
X155524564Y-81815000D01*
%TO.C,R6*%
X159969564Y-95785000D02*
X159515436Y-95785000D01*
X159969564Y-97255000D02*
X159515436Y-97255000D01*
%TO.C,R5*%
X159515436Y-94715000D02*
X159969564Y-94715000D01*
X159515436Y-93245000D02*
X159969564Y-93245000D01*
%TO.C,R4*%
X159515436Y-89635000D02*
X159969564Y-89635000D01*
X159515436Y-88165000D02*
X159969564Y-88165000D01*
%TO.C,R3*%
X146126564Y-85625000D02*
X145672436Y-85625000D01*
X146126564Y-87095000D02*
X145672436Y-87095000D01*
%TO.C,R2*%
X141578000Y-84839436D02*
X141578000Y-85293564D01*
X140108000Y-84839436D02*
X140108000Y-85293564D01*
%TO.C,R1*%
X137260000Y-89992564D02*
X137260000Y-89538436D01*
X135790000Y-89992564D02*
X135790000Y-89538436D01*
%TO.C,Q2*%
X136527000Y-83510000D02*
X136527000Y-84440000D01*
X136527000Y-86670000D02*
X136527000Y-85740000D01*
X136527000Y-86670000D02*
X138687000Y-86670000D01*
X136527000Y-83510000D02*
X137987000Y-83510000D01*
%TO.C,Q1*%
X140795000Y-91369000D02*
X139335000Y-91369000D01*
X140795000Y-88209000D02*
X138635000Y-88209000D01*
X140795000Y-88209000D02*
X140795000Y-89139000D01*
X140795000Y-91369000D02*
X140795000Y-90439000D01*
%TO.C,D1*%
X158002500Y-83510000D02*
X160687500Y-83510000D01*
X158002500Y-81590000D02*
X158002500Y-83510000D01*
X160687500Y-81590000D02*
X158002500Y-81590000D01*
%TO.C,C4*%
X159966252Y-85625000D02*
X159443748Y-85625000D01*
X159966252Y-87095000D02*
X159443748Y-87095000D01*
%TO.C,C3*%
X150730000Y-89593748D02*
X150730000Y-90116252D01*
X152200000Y-89593748D02*
X152200000Y-90116252D01*
%TO.C,C2*%
X143730000Y-89593748D02*
X143730000Y-90116252D01*
X145200000Y-89593748D02*
X145200000Y-90116252D01*
%TO.C,C1*%
D10*
X135637142Y-85891666D02*
X135684761Y-85939285D01*
X135732380Y-86082142D01*
X135732380Y-86177380D01*
X135684761Y-86320238D01*
X135589523Y-86415476D01*
X135494285Y-86463095D01*
X135303809Y-86510714D01*
X135160952Y-86510714D01*
X134970476Y-86463095D01*
X134875238Y-86415476D01*
X134780000Y-86320238D01*
X134732380Y-86177380D01*
X134732380Y-86082142D01*
X134780000Y-85939285D01*
X134827619Y-85891666D01*
X135732380Y-84939285D02*
X135732380Y-85510714D01*
X135732380Y-85225000D02*
X134732380Y-85225000D01*
X134875238Y-85320238D01*
X134970476Y-85415476D01*
X135018095Y-85510714D01*
%TO.C,J1*%
X106981666Y-89622380D02*
X106981666Y-90336666D01*
X106934047Y-90479523D01*
X106838809Y-90574761D01*
X106695952Y-90622380D01*
X106600714Y-90622380D01*
X107981666Y-90622380D02*
X107410238Y-90622380D01*
X107695952Y-90622380D02*
X107695952Y-89622380D01*
X107600714Y-89765238D01*
X107505476Y-89860476D01*
X107410238Y-89908095D01*
%TO.C,BT1*%
X131294285Y-93527571D02*
X131437142Y-93575190D01*
X131484761Y-93622809D01*
X131532380Y-93718047D01*
X131532380Y-93860904D01*
X131484761Y-93956142D01*
X131437142Y-94003761D01*
X131341904Y-94051380D01*
X130960952Y-94051380D01*
X130960952Y-93051380D01*
X131294285Y-93051380D01*
X131389523Y-93099000D01*
X131437142Y-93146619D01*
X131484761Y-93241857D01*
X131484761Y-93337095D01*
X131437142Y-93432333D01*
X131389523Y-93479952D01*
X131294285Y-93527571D01*
X130960952Y-93527571D01*
X131818095Y-93051380D02*
X132389523Y-93051380D01*
X132103809Y-94051380D02*
X132103809Y-93051380D01*
X133246666Y-94051380D02*
X132675238Y-94051380D01*
X132960952Y-94051380D02*
X132960952Y-93051380D01*
X132865714Y-93194238D01*
X132770476Y-93289476D01*
X132675238Y-93337095D01*
%TO.C,SW1*%
X101536666Y-95654761D02*
X101679523Y-95702380D01*
X101917619Y-95702380D01*
X102012857Y-95654761D01*
X102060476Y-95607142D01*
X102108095Y-95511904D01*
X102108095Y-95416666D01*
X102060476Y-95321428D01*
X102012857Y-95273809D01*
X101917619Y-95226190D01*
X101727142Y-95178571D01*
X101631904Y-95130952D01*
X101584285Y-95083333D01*
X101536666Y-94988095D01*
X101536666Y-94892857D01*
X101584285Y-94797619D01*
X101631904Y-94750000D01*
X101727142Y-94702380D01*
X101965238Y-94702380D01*
X102108095Y-94750000D01*
X102441428Y-94702380D02*
X102679523Y-95702380D01*
X102870000Y-94988095D01*
X103060476Y-95702380D01*
X103298571Y-94702380D01*
X104203333Y-95702380D02*
X103631904Y-95702380D01*
X103917619Y-95702380D02*
X103917619Y-94702380D01*
X103822380Y-94845238D01*
X103727142Y-94940476D01*
X103631904Y-94988095D01*
%TO.C,U2*%
X163068095Y-82002380D02*
X163068095Y-82811904D01*
X163115714Y-82907142D01*
X163163333Y-82954761D01*
X163258571Y-83002380D01*
X163449047Y-83002380D01*
X163544285Y-82954761D01*
X163591904Y-82907142D01*
X163639523Y-82811904D01*
X163639523Y-82002380D01*
X164068095Y-82097619D02*
X164115714Y-82050000D01*
X164210952Y-82002380D01*
X164449047Y-82002380D01*
X164544285Y-82050000D01*
X164591904Y-82097619D01*
X164639523Y-82192857D01*
X164639523Y-82288095D01*
X164591904Y-82430952D01*
X164020476Y-83002380D01*
X164639523Y-83002380D01*
%TO.C,U1*%
X147193095Y-91781380D02*
X147193095Y-92590904D01*
X147240714Y-92686142D01*
X147288333Y-92733761D01*
X147383571Y-92781380D01*
X147574047Y-92781380D01*
X147669285Y-92733761D01*
X147716904Y-92686142D01*
X147764523Y-92590904D01*
X147764523Y-91781380D01*
X148764523Y-92781380D02*
X148193095Y-92781380D01*
X148478809Y-92781380D02*
X148478809Y-91781380D01*
X148383571Y-91924238D01*
X148288333Y-92019476D01*
X148193095Y-92067095D01*
%TO.C,R7*%
X155043333Y-81402380D02*
X154710000Y-80926190D01*
X154471904Y-81402380D02*
X154471904Y-80402380D01*
X154852857Y-80402380D01*
X154948095Y-80450000D01*
X154995714Y-80497619D01*
X155043333Y-80592857D01*
X155043333Y-80735714D01*
X154995714Y-80830952D01*
X154948095Y-80878571D01*
X154852857Y-80926190D01*
X154471904Y-80926190D01*
X155376666Y-80402380D02*
X156043333Y-80402380D01*
X155614761Y-81402380D01*
%TO.C,R6*%
X156678333Y-96972380D02*
X156345000Y-96496190D01*
X156106904Y-96972380D02*
X156106904Y-95972380D01*
X156487857Y-95972380D01*
X156583095Y-96020000D01*
X156630714Y-96067619D01*
X156678333Y-96162857D01*
X156678333Y-96305714D01*
X156630714Y-96400952D01*
X156583095Y-96448571D01*
X156487857Y-96496190D01*
X156106904Y-96496190D01*
X157535476Y-95972380D02*
X157345000Y-95972380D01*
X157249761Y-96020000D01*
X157202142Y-96067619D01*
X157106904Y-96210476D01*
X157059285Y-96400952D01*
X157059285Y-96781904D01*
X157106904Y-96877142D01*
X157154523Y-96924761D01*
X157249761Y-96972380D01*
X157440238Y-96972380D01*
X157535476Y-96924761D01*
X157583095Y-96877142D01*
X157630714Y-96781904D01*
X157630714Y-96543809D01*
X157583095Y-96448571D01*
X157535476Y-96400952D01*
X157440238Y-96353333D01*
X157249761Y-96353333D01*
X157154523Y-96400952D01*
X157106904Y-96448571D01*
X157059285Y-96543809D01*
%TO.C,R5*%
X156678333Y-94432380D02*
X156345000Y-93956190D01*
X156106904Y-94432380D02*
X156106904Y-93432380D01*
X156487857Y-93432380D01*
X156583095Y-93480000D01*
X156630714Y-93527619D01*
X156678333Y-93622857D01*
X156678333Y-93765714D01*
X156630714Y-93860952D01*
X156583095Y-93908571D01*
X156487857Y-93956190D01*
X156106904Y-93956190D01*
X157583095Y-93432380D02*
X157106904Y-93432380D01*
X157059285Y-93908571D01*
X157106904Y-93860952D01*
X157202142Y-93813333D01*
X157440238Y-93813333D01*
X157535476Y-93860952D01*
X157583095Y-93908571D01*
X157630714Y-94003809D01*
X157630714Y-94241904D01*
X157583095Y-94337142D01*
X157535476Y-94384761D01*
X157440238Y-94432380D01*
X157202142Y-94432380D01*
X157106904Y-94384761D01*
X157059285Y-94337142D01*
%TO.C,R4*%
X156678333Y-89352380D02*
X156345000Y-88876190D01*
X156106904Y-89352380D02*
X156106904Y-88352380D01*
X156487857Y-88352380D01*
X156583095Y-88400000D01*
X156630714Y-88447619D01*
X156678333Y-88542857D01*
X156678333Y-88685714D01*
X156630714Y-88780952D01*
X156583095Y-88828571D01*
X156487857Y-88876190D01*
X156106904Y-88876190D01*
X157535476Y-88685714D02*
X157535476Y-89352380D01*
X157297380Y-88304761D02*
X157059285Y-89019047D01*
X157678333Y-89019047D01*
%TO.C,R3*%
X145756333Y-85161380D02*
X145423000Y-84685190D01*
X145184904Y-85161380D02*
X145184904Y-84161380D01*
X145565857Y-84161380D01*
X145661095Y-84209000D01*
X145708714Y-84256619D01*
X145756333Y-84351857D01*
X145756333Y-84494714D01*
X145708714Y-84589952D01*
X145661095Y-84637571D01*
X145565857Y-84685190D01*
X145184904Y-84685190D01*
X146089666Y-84161380D02*
X146708714Y-84161380D01*
X146375380Y-84542333D01*
X146518238Y-84542333D01*
X146613476Y-84589952D01*
X146661095Y-84637571D01*
X146708714Y-84732809D01*
X146708714Y-84970904D01*
X146661095Y-85066142D01*
X146613476Y-85113761D01*
X146518238Y-85161380D01*
X146232523Y-85161380D01*
X146137285Y-85113761D01*
X146089666Y-85066142D01*
%TO.C,R2*%
X140676333Y-83118880D02*
X140343000Y-82642690D01*
X140104904Y-83118880D02*
X140104904Y-82118880D01*
X140485857Y-82118880D01*
X140581095Y-82166500D01*
X140628714Y-82214119D01*
X140676333Y-82309357D01*
X140676333Y-82452214D01*
X140628714Y-82547452D01*
X140581095Y-82595071D01*
X140485857Y-82642690D01*
X140104904Y-82642690D01*
X141057285Y-82214119D02*
X141104904Y-82166500D01*
X141200142Y-82118880D01*
X141438238Y-82118880D01*
X141533476Y-82166500D01*
X141581095Y-82214119D01*
X141628714Y-82309357D01*
X141628714Y-82404595D01*
X141581095Y-82547452D01*
X141009666Y-83118880D01*
X141628714Y-83118880D01*
%TO.C,R1*%
X136358333Y-92717880D02*
X136025000Y-92241690D01*
X135786904Y-92717880D02*
X135786904Y-91717880D01*
X136167857Y-91717880D01*
X136263095Y-91765500D01*
X136310714Y-91813119D01*
X136358333Y-91908357D01*
X136358333Y-92051214D01*
X136310714Y-92146452D01*
X136263095Y-92194071D01*
X136167857Y-92241690D01*
X135786904Y-92241690D01*
X137310714Y-92717880D02*
X136739285Y-92717880D01*
X137025000Y-92717880D02*
X137025000Y-91717880D01*
X136929761Y-91860738D01*
X136834523Y-91955976D01*
X136739285Y-92003595D01*
%TO.C,Q2*%
X137191761Y-83137619D02*
X137096523Y-83090000D01*
X137001285Y-82994761D01*
X136858428Y-82851904D01*
X136763190Y-82804285D01*
X136667952Y-82804285D01*
X136715571Y-83042380D02*
X136620333Y-82994761D01*
X136525095Y-82899523D01*
X136477476Y-82709047D01*
X136477476Y-82375714D01*
X136525095Y-82185238D01*
X136620333Y-82090000D01*
X136715571Y-82042380D01*
X136906047Y-82042380D01*
X137001285Y-82090000D01*
X137096523Y-82185238D01*
X137144142Y-82375714D01*
X137144142Y-82709047D01*
X137096523Y-82899523D01*
X137001285Y-82994761D01*
X136906047Y-83042380D01*
X136715571Y-83042380D01*
X137525095Y-82137619D02*
X137572714Y-82090000D01*
X137667952Y-82042380D01*
X137906047Y-82042380D01*
X138001285Y-82090000D01*
X138048904Y-82137619D01*
X138096523Y-82232857D01*
X138096523Y-82328095D01*
X138048904Y-82470952D01*
X137477476Y-83042380D01*
X138096523Y-83042380D01*
%TO.C,Q1*%
X139939761Y-92836619D02*
X139844523Y-92789000D01*
X139749285Y-92693761D01*
X139606428Y-92550904D01*
X139511190Y-92503285D01*
X139415952Y-92503285D01*
X139463571Y-92741380D02*
X139368333Y-92693761D01*
X139273095Y-92598523D01*
X139225476Y-92408047D01*
X139225476Y-92074714D01*
X139273095Y-91884238D01*
X139368333Y-91789000D01*
X139463571Y-91741380D01*
X139654047Y-91741380D01*
X139749285Y-91789000D01*
X139844523Y-91884238D01*
X139892142Y-92074714D01*
X139892142Y-92408047D01*
X139844523Y-92598523D01*
X139749285Y-92693761D01*
X139654047Y-92741380D01*
X139463571Y-92741380D01*
X140844523Y-92741380D02*
X140273095Y-92741380D01*
X140558809Y-92741380D02*
X140558809Y-91741380D01*
X140463571Y-91884238D01*
X140368333Y-91979476D01*
X140273095Y-92027095D01*
%TO.C,D1*%
X158949404Y-81352380D02*
X158949404Y-80352380D01*
X159187500Y-80352380D01*
X159330357Y-80400000D01*
X159425595Y-80495238D01*
X159473214Y-80590476D01*
X159520833Y-80780952D01*
X159520833Y-80923809D01*
X159473214Y-81114285D01*
X159425595Y-81209523D01*
X159330357Y-81304761D01*
X159187500Y-81352380D01*
X158949404Y-81352380D01*
X160473214Y-81352380D02*
X159901785Y-81352380D01*
X160187500Y-81352380D02*
X160187500Y-80352380D01*
X160092261Y-80495238D01*
X159997023Y-80590476D01*
X159901785Y-80638095D01*
%TO.C,C4*%
X156678333Y-86717142D02*
X156630714Y-86764761D01*
X156487857Y-86812380D01*
X156392619Y-86812380D01*
X156249761Y-86764761D01*
X156154523Y-86669523D01*
X156106904Y-86574285D01*
X156059285Y-86383809D01*
X156059285Y-86240952D01*
X156106904Y-86050476D01*
X156154523Y-85955238D01*
X156249761Y-85860000D01*
X156392619Y-85812380D01*
X156487857Y-85812380D01*
X156630714Y-85860000D01*
X156678333Y-85907619D01*
X157535476Y-86145714D02*
X157535476Y-86812380D01*
X157297380Y-85764761D02*
X157059285Y-86479047D01*
X157678333Y-86479047D01*
%TO.C,C3*%
X151298333Y-92686142D02*
X151250714Y-92733761D01*
X151107857Y-92781380D01*
X151012619Y-92781380D01*
X150869761Y-92733761D01*
X150774523Y-92638523D01*
X150726904Y-92543285D01*
X150679285Y-92352809D01*
X150679285Y-92209952D01*
X150726904Y-92019476D01*
X150774523Y-91924238D01*
X150869761Y-91829000D01*
X151012619Y-91781380D01*
X151107857Y-91781380D01*
X151250714Y-91829000D01*
X151298333Y-91876619D01*
X151631666Y-91781380D02*
X152250714Y-91781380D01*
X151917380Y-92162333D01*
X152060238Y-92162333D01*
X152155476Y-92209952D01*
X152203095Y-92257571D01*
X152250714Y-92352809D01*
X152250714Y-92590904D01*
X152203095Y-92686142D01*
X152155476Y-92733761D01*
X152060238Y-92781380D01*
X151774523Y-92781380D01*
X151679285Y-92733761D01*
X151631666Y-92686142D01*
%TO.C,C2*%
X144298333Y-92686142D02*
X144250714Y-92733761D01*
X144107857Y-92781380D01*
X144012619Y-92781380D01*
X143869761Y-92733761D01*
X143774523Y-92638523D01*
X143726904Y-92543285D01*
X143679285Y-92352809D01*
X143679285Y-92209952D01*
X143726904Y-92019476D01*
X143774523Y-91924238D01*
X143869761Y-91829000D01*
X144012619Y-91781380D01*
X144107857Y-91781380D01*
X144250714Y-91829000D01*
X144298333Y-91876619D01*
X144679285Y-91876619D02*
X144726904Y-91829000D01*
X144822142Y-91781380D01*
X145060238Y-91781380D01*
X145155476Y-91829000D01*
X145203095Y-91876619D01*
X145250714Y-91971857D01*
X145250714Y-92067095D01*
X145203095Y-92209952D01*
X144631666Y-92781380D01*
X145250714Y-92781380D01*
%TD*%
M02*
