M48
; DRILL file {KiCad (5.1.10)-1} date 06/13/21 23:34:23
; FORMAT={-:-/ absolute / inch / decimal}
; #@! TF.CreationDate,2021-06-13T23:34:23+02:00
; #@! TF.GenerationSoftware,Kicad,Pcbnew,(5.1.10)-1
; #@! TF.FileFunction,Plated,1,2,PTH
FMAT,2
INCH
T1C0.0157
T2C0.0394
%
G90
G05
T1
X5.025Y-3.3
X5.075Y-3.3
X5.621Y-3.354
X6.025Y-3.3
X6.4Y-3.7
X6.725Y-3.525
X6.811Y-3.354
X7.0Y-3.65
X7.0472Y-3.4449
X7.05Y-3.6
T2
X4.325Y-3.55
X4.365Y-3.7
X4.365Y-3.8
X4.425Y-3.55
X4.525Y-3.55
X4.625Y-3.55
X4.725Y-3.55
X4.825Y-3.55
X4.925Y-3.55
X5.15Y-3.6
X5.25Y-3.6
T0
M30
